<svg width="166" height="181" viewBox="0 0 166 181" fill="none" xmlns="http://www.w3.org/2000/svg">
<path d="M105.358 94.2016C108.284 94.2016 111.122 94.2016 113.942 94.2016C115.876 94.2016 116 94.308 116 96.2768C116 102.166 116 108.072 116 113.961C116 115.167 115.681 115.486 114.457 115.486C111.69 115.486 108.923 115.486 106.138 115.486C105.908 115.486 105.659 115.486 105.34 115.486C105.34 116.479 105.34 117.437 105.34 118.377C105.34 121.747 103.07 124 99.6995 124C84.9954 124 70.3091 124 55.6049 124C52.2704 124 50 121.73 50 118.413C50 108.001 50 97.5716 50 87.1599C50 86.0247 50.3193 85.6877 51.4544 85.6877C53.778 85.6877 56.1016 85.6877 58.5138 85.6877C58.5138 85.3862 58.5138 85.1379 58.5138 84.8718C58.5138 76.4467 58.5138 68.0215 58.5138 59.5963C58.5138 58.2838 58.7976 58 60.1102 58C74.6547 58 89.1991 58 103.726 58C105.038 58 105.322 58.2838 105.322 59.5963C105.322 70.8417 105.322 82.0693 105.322 93.3147C105.358 93.5808 105.358 93.8468 105.358 94.2016ZM60.66 60.1817C60.66 60.5187 60.66 60.8025 60.66 61.0863C60.66 79.799 60.66 98.5117 60.66 117.224C60.66 118.838 60.6778 120.417 59.5426 121.889C59.9151 121.889 60.1634 121.889 60.394 121.889C65.0056 121.889 69.6173 121.889 74.229 121.889C82.7605 121.889 91.2921 121.889 99.8414 121.889C101.562 121.889 102.928 120.914 103.123 119.3C103.282 118.058 103.158 116.799 103.158 115.664C102.52 115.486 101.775 115.486 101.42 115.114C101.065 114.741 101.083 113.996 100.941 113.411C98.387 113.251 98.387 113.251 96.1521 114.369C95.5845 114.653 95.0169 114.972 94.4316 115.22C94.0769 115.362 93.6689 115.486 93.2964 115.486C89.2169 115.504 85.1373 115.504 81.0578 115.504C79.018 115.504 77.67 114.156 77.67 112.134C77.67 108.019 77.67 103.886 77.67 99.771C77.67 97.6958 79.0003 96.3655 81.0755 96.3655C83.2395 96.3655 85.4211 96.3655 87.5851 96.3655C87.8156 96.3655 88.0462 96.3655 88.2945 96.3655C88.2945 94.2016 88.2945 92.1263 88.2945 90.0688C88.2945 89.04 88.5961 88.1 89.2524 87.3018C90.3166 85.9893 91.7533 85.6345 93.3496 85.7232C94.3074 85.7764 94.6622 86.1134 94.6799 87.0712C94.6799 88.7917 94.6622 90.53 94.6977 92.2505C94.6977 92.5165 94.8396 92.8535 95.0169 93.0486C95.9925 94.0774 97.0035 95.0707 98.0145 96.064C98.1387 96.1881 98.3338 96.3478 98.5112 96.3478C99.3448 96.3832 100.178 96.3655 100.888 96.3655C101.083 95.6915 101.083 94.9465 101.456 94.5918C101.828 94.237 102.573 94.2548 103.176 94.1129C103.176 82.8675 103.176 71.5689 103.176 60.2349C89.0218 60.1817 74.8852 60.1817 60.66 60.1817ZM79.8694 111.211C79.6743 112.755 79.8694 113.429 81.6786 113.375C84.144 113.304 86.6095 113.234 89.0572 113.393C91.9839 113.588 94.6622 113.127 97.1454 111.513C97.4469 111.318 97.8904 111.265 98.2806 111.247C99.2029 111.212 100.125 111.229 101.048 111.229C101.048 106.937 101.048 102.715 101.048 98.4585C100.072 98.4585 99.132 98.5117 98.2096 98.4407C97.7662 98.4053 97.2518 98.2102 96.9325 97.9086C95.6909 96.738 94.5203 95.4964 93.2787 94.308C92.7466 93.8113 92.5337 93.2792 92.5515 92.552C92.6047 90.9911 92.5692 89.4125 92.5692 87.8517C91.2566 87.7984 90.423 89.0046 90.4407 89.9978C90.4585 92.3214 90.4585 94.645 90.4407 96.9863C90.4407 98.1569 90.1215 98.4762 88.9331 98.4762C86.3257 98.4762 83.7006 98.4762 81.0933 98.4762C80.2951 98.4762 79.8694 98.831 79.8162 99.5227C79.7984 99.8597 79.8162 100.214 79.8162 100.64C82.6896 100.64 85.4921 100.64 88.2945 100.64C88.2945 101.367 88.2945 102.024 88.2945 102.751C85.4566 102.751 82.6541 102.751 79.8694 102.751C79.8694 103.496 79.8694 104.17 79.8694 104.897C82.7073 104.897 85.4921 104.897 88.2945 104.897C88.2945 105.624 88.2945 106.298 88.2945 107.043C85.4566 107.043 82.6541 107.043 79.8694 107.043C79.8694 107.77 79.8694 108.427 79.8694 109.154C82.7073 109.154 85.5098 109.154 88.3123 109.154C88.3123 109.881 88.3123 110.537 88.3123 111.247C85.4743 111.212 82.6896 111.211 79.8694 111.211ZM52.1462 87.8339C52.1462 88.1709 52.1462 88.437 52.1462 88.703C52.1462 98.1392 52.1462 107.575 52.1462 117.012C52.1462 117.615 52.1285 118.2 52.1462 118.803C52.2526 121.198 54.8955 122.652 56.953 121.41C58.0527 120.754 58.5316 119.743 58.5316 118.466C58.5316 108.445 58.5316 98.4407 58.5316 88.4192C58.5316 88.2241 58.5138 88.029 58.4961 87.8339C56.3676 87.8339 54.2924 87.8339 52.1462 87.8339ZM103.282 96.3655C103.282 102.059 103.282 107.682 103.282 113.304C106.83 113.304 110.342 113.304 113.836 113.304C113.836 107.629 113.836 102.006 113.836 96.3655C110.306 96.3655 106.812 96.3655 103.282 96.3655Z" fill="#1DADE1"/>
<path d="M95.762 68.9437C95.4428 75.2404 92.729 81.0582 87.4788 85.6521C85.9356 87.0001 84.357 88.2772 82.7962 89.5898C82.2995 90.0155 81.7674 90.1396 81.2353 89.6785C78.8585 87.5855 76.3221 85.6521 74.1582 83.364C70.593 79.586 68.7129 74.9743 68.234 69.7951C68.1807 69.1566 68.1453 68.518 68.1275 67.8795C68.1098 66.9571 68.5 66.5492 69.3869 66.5669C73.7679 66.6024 77.7056 65.3076 81.1821 62.6115C81.7497 62.1681 82.2641 62.2568 82.8139 62.6825C85.3858 64.6868 88.2947 65.9107 91.5229 66.3718C92.3565 66.496 93.1901 66.5315 94.0415 66.5492C95.5847 66.5669 95.7975 66.762 95.762 68.9437ZM81.9448 87.4968C82.9026 86.6986 83.8072 85.9182 84.7473 85.1732C88.0286 82.6013 90.6005 79.4796 92.1437 75.5597C92.995 73.3603 93.5094 71.0899 93.6158 68.7309C93.5272 68.6954 93.4562 68.6599 93.403 68.6599C89.3412 68.4648 85.6341 67.2587 82.2995 64.9174C81.998 64.7045 81.8029 64.7932 81.5546 64.9706C79.4793 66.425 77.2267 67.4893 74.7612 68.0391C73.3068 68.3584 71.8169 68.5535 70.3092 68.8018C70.3092 68.7841 70.2915 68.8373 70.2915 68.8728C70.5575 73.0587 71.9233 76.8545 74.3355 80.2955C76.3753 83.1689 79.2487 85.1732 81.9448 87.4968Z" fill="#1DADE1"/>
<path d="M74.7256 88.082C75.2755 88.6674 75.7367 89.1463 76.2333 89.6784C76.1091 89.8203 75.9495 89.9976 75.7899 90.1573C75.0094 90.9377 73.9275 91.6117 73.5373 92.5518C73.147 93.5273 73.4308 94.7689 73.4131 95.9041C73.4131 97.0038 73.4131 98.1213 73.4131 99.221C73.4131 100.214 73.0406 100.587 72.0473 100.587C69.3868 100.587 66.7262 100.587 64.0656 100.587C63.1433 100.587 62.7531 100.214 62.7531 99.3097C62.7531 96.6136 62.7531 93.8998 62.7531 91.2038C62.7531 90.3701 63.1433 89.9444 63.9592 89.9622C66.8503 89.9799 69.7592 89.9976 72.6504 90.0154C72.81 90.0154 73.0051 89.8912 73.1293 89.7671C73.6969 89.2172 74.1935 88.6496 74.7256 88.082ZM71.2669 94.7157C71.054 94.9108 70.8944 95.0527 70.7348 95.2124C70.1317 95.7977 69.5464 96.4008 68.9433 97.0038C68.5176 97.4295 67.9855 97.6069 67.5066 97.1989C66.7262 96.4894 66.0344 95.6913 65.3427 94.9818C65.7861 94.5029 66.2473 94.0062 66.8149 93.3854C67.2228 93.8998 67.613 94.3787 67.9323 94.7867C68.9078 93.8289 69.777 92.9775 70.6106 92.1438C68.766 92.1438 66.8503 92.1438 64.9525 92.1438C64.9525 94.2723 64.9525 96.3476 64.9525 98.4405C67.0809 98.4405 69.1739 98.4405 71.2669 98.4405C71.2669 97.1812 71.2669 96.0105 71.2669 94.7157Z" fill="#1DADE1"/>
<path d="M74.7078 100.871C75.3109 101.456 75.7898 101.917 76.3042 102.414C75.5237 103.194 74.7788 103.992 73.9806 104.72C73.5549 105.11 73.413 105.535 73.413 106.103C73.4485 108.072 73.4308 110.041 73.4308 112.01C73.4308 112.967 73.0583 113.34 72.1005 113.34C69.4399 113.34 66.7793 113.34 64.1187 113.34C63.1609 113.34 62.7885 112.967 62.7885 112.027C62.7885 109.349 62.7885 106.671 62.7885 103.992C62.7885 103.088 63.1787 102.715 64.101 102.715C66.7084 102.715 69.3335 102.662 71.9408 102.751C72.739 102.786 73.2711 102.573 73.7323 101.988C74.0338 101.598 74.3708 101.261 74.7078 100.871ZM71.2491 111.194C71.2491 109.934 71.2491 108.746 71.2491 107.575C70.7702 107.859 70.4509 108.249 70.0962 108.622C69.7237 109.012 69.3512 109.384 68.961 109.757C68.4289 110.271 67.8968 110.342 67.4179 109.917C66.6729 109.225 65.9989 108.48 65.3249 107.788C65.786 107.291 66.2472 106.795 66.8503 106.139C67.2582 106.653 67.6307 107.15 67.8968 107.469C68.8546 106.511 69.7059 105.66 70.4686 104.897C68.7481 104.897 66.8503 104.897 64.9524 104.897C64.9524 107.025 64.9524 109.118 64.9524 111.211C67.0808 111.194 69.1561 111.194 71.2491 111.194Z" fill="#1DADE1"/>
<path d="M81.9092 67.5073C82.2107 67.6492 82.4945 67.7379 82.7073 67.9153C84.9777 69.7422 87.5319 70.7532 90.4585 70.8064C91.2389 70.8242 91.6291 71.445 91.4518 72.2609C90.6891 75.7196 89.0395 78.664 86.4499 81.0763C85.2438 82.1937 83.9667 83.2225 82.7251 84.3044C82.2639 84.6946 81.7495 84.8011 81.2706 84.3931C79.5324 82.85 77.7232 81.3778 76.1269 79.6928C74.1758 77.6352 73.0229 75.0811 72.4198 72.2964C72.2247 71.4095 72.6326 70.8242 73.5018 70.8064C76.3042 70.7355 78.7697 69.7954 80.9691 68.0572C81.2706 67.8443 81.5899 67.7024 81.9092 67.5073ZM74.8143 72.8462C75.8963 76.9967 78.7697 79.6573 81.9446 82.0873C85.1196 79.6395 87.993 76.979 89.075 72.8285C86.3967 72.5447 84.0554 71.5514 81.9446 69.9905C79.7984 71.6046 77.4571 72.5447 74.8143 72.8462Z" fill="#1DADE1"/>
<rect x="0.5" y="0.5" width="164.358" height="180" rx="7.5" stroke="#1DADE1"/>
<circle cx="32.4012" cy="34.6357" r="16.7593" fill="#90D4EC"/>
<path d="M30.2689 31.9893H31.5345C32.0267 31.9893 32.434 31.9043 32.7562 31.7344C33.0844 31.5645 33.3275 31.3301 33.4857 31.0312C33.6439 30.7324 33.723 30.3896 33.723 30.0029C33.723 29.5986 33.6498 29.2529 33.5033 28.9658C33.3627 28.6729 33.1459 28.4473 32.8529 28.2891C32.5658 28.1309 32.1996 28.0518 31.7543 28.0518C31.3793 28.0518 31.0394 28.1279 30.7347 28.2803C30.4359 28.4268 30.1986 28.6377 30.0228 28.9131C29.847 29.1826 29.7592 29.5049 29.7592 29.8799H27.6322C27.6322 29.2002 27.8109 28.5967 28.1683 28.0693C28.5258 27.542 29.0121 27.1289 29.6273 26.8301C30.2484 26.5254 30.9457 26.373 31.7191 26.373C32.5453 26.373 33.266 26.5107 33.8812 26.7861C34.5023 27.0557 34.9857 27.46 35.3314 27.999C35.6771 28.5381 35.85 29.2061 35.85 30.0029C35.85 30.3662 35.765 30.7354 35.5951 31.1104C35.4252 31.4854 35.1732 31.8281 34.8392 32.1387C34.5052 32.4434 34.0892 32.6924 33.5912 32.8857C33.0931 33.0732 32.516 33.167 31.8597 33.167H30.2689V31.9893ZM30.2689 33.6416V32.4814H31.8597C32.6097 32.4814 33.2484 32.5693 33.7758 32.7451C34.309 32.9209 34.7426 33.1641 35.0765 33.4746C35.4105 33.7793 35.6537 34.1279 35.806 34.5205C35.9642 34.9131 36.0433 35.3291 36.0433 35.7686C36.0433 36.3662 35.9349 36.8994 35.7181 37.3682C35.5072 37.8311 35.2054 38.2236 34.8129 38.5459C34.4203 38.8682 33.9603 39.1113 33.433 39.2754C32.9115 39.4395 32.3431 39.5215 31.7279 39.5215C31.1771 39.5215 30.6498 39.4453 30.1459 39.293C29.642 39.1406 29.1908 38.915 28.7924 38.6162C28.3939 38.3115 28.0775 37.9336 27.8431 37.4824C27.6146 37.0254 27.5004 36.498 27.5004 35.9004H29.6185C29.6185 36.2812 29.7064 36.6182 29.8822 36.9111C30.0638 37.1982 30.3158 37.4238 30.6381 37.5879C30.9662 37.752 31.3412 37.834 31.7631 37.834C32.2084 37.834 32.5922 37.7549 32.9144 37.5967C33.2367 37.4385 33.4828 37.2041 33.6527 36.8936C33.8285 36.583 33.9164 36.208 33.9164 35.7686C33.9164 35.2705 33.8197 34.8662 33.6263 34.5557C33.433 34.2451 33.1576 34.0166 32.8002 33.8701C32.4427 33.7178 32.0209 33.6416 31.5345 33.6416H30.2689Z" fill="#1DADE1"/>
</svg>
