<svg width="166" height="181" viewBox="0 0 166 181" fill="none" xmlns="http://www.w3.org/2000/svg">
<path d="M98.2704 140.164C96.4204 138.359 94.5479 136.532 92.698 134.727C92.2919 134.343 91.9083 133.937 91.5248 133.554C90.487 132.516 90.3968 132.132 90.9382 130.824C89.1785 130.395 87.3962 130.034 85.6365 129.538C77.1989 127.146 69.8667 122.882 63.64 116.723C58.6315 111.76 53.6231 106.774 48.6598 101.743C45.5239 98.5847 46.8324 93.5312 51.0512 92.4708C53.1493 91.9519 54.9542 92.561 56.4657 94.0952C60.301 97.953 64.1589 101.788 67.9716 105.624C68.2423 105.894 68.3777 106.278 68.5807 106.616C68.6935 106.526 68.8063 106.436 68.9191 106.346C68.9643 106.052 69.032 105.736 69.0771 105.443C69.7313 101.653 73.0928 99.4195 76.8379 100.232C77.808 100.457 78.8007 100.66 79.9738 100.931C79.6128 100.547 79.4098 100.322 79.2068 100.096C75.9129 96.8024 72.6416 93.5086 69.3478 90.2373C68.7387 89.6282 68.107 89.0416 68.4905 88.0489C68.8966 87.0112 69.799 87.0337 70.7014 87.0563C72.3258 87.0788 73.9501 87.0563 75.7099 87.0563C75.7099 85.7478 75.755 84.4844 75.6873 83.2435C75.6647 83.0179 75.2587 82.7246 74.9879 82.6118C68.8289 80.2881 64.4973 76.0918 62.0833 69.9779C56.8493 56.7575 65.693 42.0254 79.7708 40.3785C93.4199 38.7767 105.196 49.696 104.226 63.3677C103.572 72.5724 98.6991 78.9796 90.1486 82.499C89.4041 82.7923 89.0657 83.1082 89.1334 83.9429C89.2236 84.9356 89.156 85.9508 89.156 87.0788C90.9608 87.0788 92.6754 87.1014 94.39 87.0788C95.2473 87.0563 96.0369 87.1691 96.3979 88.0941C96.7589 88.9739 96.2625 89.5605 95.676 90.1471C92.0663 93.7568 88.4566 97.3664 84.8243 100.976C84.5762 101.224 84.2829 101.45 83.8317 101.833C86.0877 102.352 88.0731 102.826 90.0809 103.277C91.4797 103.593 92.8559 103.932 94.2546 104.225C97.0973 104.834 99.5112 106.233 101.564 108.286C103.527 110.271 105.512 112.234 107.588 114.309C107.949 113.948 108.287 113.61 108.626 113.294C109.348 112.617 110.205 112.55 110.882 113.227C113.115 115.415 115.326 117.626 117.515 119.859C118.191 120.559 118.146 121.303 117.515 122.048C117.357 122.251 117.154 122.431 116.973 122.612C111.446 128.139 105.941 133.666 100.414 139.171C100.053 139.532 99.624 139.848 99.2405 140.186C98.9247 140.164 98.6088 140.164 98.2704 140.164ZM105.309 116.633C102.963 114.242 100.752 111.895 98.4509 109.662C97.2326 108.466 95.676 107.744 93.9839 107.361C88.0956 106.007 82.2073 104.654 76.319 103.322C74.3337 102.871 72.7093 103.841 72.2355 105.669C71.8069 107.406 72.8221 109.008 74.7398 109.549C77.3342 110.271 79.9513 110.948 82.5457 111.647C84.8694 112.279 87.1932 112.866 89.4944 113.52C90.4645 113.791 90.8931 114.58 90.645 115.46C90.4193 116.272 89.6748 116.678 88.7273 116.52C88.5468 116.498 88.3438 116.408 88.1633 116.362C83.1549 114.964 78.169 113.52 73.1605 112.166C70.2953 111.377 67.8588 109.955 65.7832 107.835C62.5571 104.541 59.2632 101.292 55.992 98.0207C55.3151 97.3439 54.6834 96.6445 53.9841 96.0354C52.5628 94.7945 50.4421 95.4939 50.1037 97.2988C49.9232 98.2463 50.3293 98.9908 51.0061 99.6451C55.9694 104.586 60.8876 109.549 65.8509 114.467C72.9124 121.461 81.3951 125.725 91.1413 127.665C93.104 128.049 94.5705 127.891 95.7436 126.199C96.1272 125.657 96.6912 125.229 97.1875 124.732C99.8948 122.048 102.602 119.34 105.309 116.633ZM90.9382 90.1922C89.9456 90.1922 88.998 90.1922 88.073 90.1922C86.6066 90.1922 86.0652 89.6507 86.0652 88.1843C86.0426 86.2667 86.0652 84.349 86.0652 82.4314C86.0652 80.7844 86.2908 80.4912 87.8474 80.0174C96.9393 77.2876 102.67 68.0152 100.955 58.8556C99.0375 48.7034 90.1261 42.2285 79.861 43.5144C69.5057 44.8004 61.9705 55.1557 64.0461 65.353C65.5802 72.8657 70.0697 77.7839 77.3794 80.0625C78.3495 80.3558 78.8909 80.8972 78.8909 81.935C78.8909 84.0783 78.9135 86.2215 78.8909 88.3648C78.8683 89.6282 78.2818 90.1696 76.9958 90.1696C76.0032 90.1696 75.0105 90.1696 74.1306 90.1696C76.9733 93.0123 79.7933 95.8549 82.5457 98.6073C85.253 95.8774 88.073 93.0574 90.9382 90.1922ZM109.821 116.723C104.745 121.8 99.624 126.921 94.593 131.952C95.9692 133.328 97.3906 134.772 98.9247 136.306C104.001 131.252 109.122 126.154 114.198 121.078C112.664 119.543 111.243 118.145 109.821 116.723Z" fill="#1DADE1"/>
<path d="M82.5006 46.4698C91.0511 46.4472 98.0448 53.4635 98.0674 62.0817C98.09 70.6321 91.0511 77.7161 82.5006 77.7161C73.8825 77.7161 66.8436 70.7449 66.821 62.217C66.821 53.4636 73.7923 46.4698 82.5006 46.4698ZM94.954 62.0817C94.954 55.1556 89.3365 49.5831 82.3878 49.5831C75.5294 49.5831 69.957 55.2233 69.9795 62.1268C69.9795 68.9175 75.5971 74.5577 82.4104 74.5802C89.3365 74.5802 94.954 68.9852 94.954 62.0817Z" fill="#1DADE1"/>
<path d="M80.9439 57.412C80.9439 58.4724 80.9439 59.4199 80.9439 60.5028C81.914 60.5028 82.8389 60.5028 83.7639 60.5028C85.8621 60.5254 87.1254 61.7888 87.148 63.932C87.148 64.5863 87.148 65.2405 87.148 65.8722C87.148 68.4441 86.4937 69.3014 84.0798 69.9783C83.8542 72.3922 83.5383 72.9788 82.478 73.0014C81.3725 73.0014 81.0341 72.3697 80.8536 69.9331C79.5902 69.7527 78.5524 69.1661 78.011 67.9253C77.5147 66.7521 77.8079 65.7369 78.7329 65.3308C79.6805 64.9247 80.4701 65.3985 80.9664 66.7295C81.9365 66.7295 82.9066 66.7295 83.9444 66.7295C83.9444 65.7369 83.9444 64.7442 83.9444 63.6388C83.0194 63.6388 82.0944 63.6388 81.1469 63.6388C79.0488 63.6162 77.7854 62.3302 77.7628 60.2095C77.7628 59.5327 77.7628 58.8334 77.7628 58.1565C77.7628 55.6974 78.4622 54.795 80.8311 54.1633C81.0567 51.7268 81.3725 51.1628 82.4328 51.1402C83.5383 51.1176 83.8993 51.7719 84.0572 54.2084C85.3432 54.3664 86.3584 54.9755 86.8998 56.2163C87.3962 57.3669 87.1029 58.4047 86.1779 58.8108C85.2304 59.2169 84.4407 58.7431 83.9444 57.412C82.9743 57.412 82.0042 57.412 80.9439 57.412Z" fill="#1DADE1"/>
<rect x="0.5" y="0.5" width="164.358" height="180" rx="7.5" stroke="#1DADE1"/>
<circle cx="32.4012" cy="34.6357" r="16.7593" fill="#90D4EC"/>
<path d="M33.5648 26.5049V39.3457H31.4467V29.0186L28.309 30.082V28.333L33.3099 26.5049H33.5648Z" fill="#1DADE1"/>
</svg>
