<svg width="460" height="473" viewBox="0 0 460 473" fill="none" xmlns="http://www.w3.org/2000/svg">
<g clip-path="url(#clip0_325_84)">
<path d="M180.07 472.9C178.913 472.206 177.757 471.512 176.6 470.934C167.811 466.539 163.879 459.369 163.647 449.77C163.532 444.797 163.763 439.939 163.532 434.966C163.532 433.81 162.375 431.959 161.45 431.612C136.238 422.707 113.686 409.292 93.331 391.597C88.3579 394.488 83.5006 397.264 78.5276 400.039C66.0372 407.094 53.7781 403.972 46.6077 391.597C32.2669 366.963 17.926 342.214 3.81652 317.464C-3.35389 304.858 -0.115639 292.946 12.3748 285.544C16.1913 283.231 20.0078 280.918 23.9399 278.952C26.7156 277.564 27.0625 275.829 26.5999 273.054C21.8582 248.651 21.9738 224.133 26.5999 199.731C27.1782 196.724 26.5999 194.989 23.593 193.601C19.3139 191.519 15.266 188.975 11.2182 186.546C1.30829e-05 179.607 -3.35389 167.695 3.23826 156.246C17.6947 130.918 32.2669 105.59 46.9546 80.4936C53.6624 68.9284 65.8059 65.8058 77.6023 72.1667C82.8067 75.058 88.011 78.0649 92.7527 80.8406C102.467 73.9015 111.604 66.3841 121.666 60.6015C133.809 53.6624 146.762 47.8798 159.599 41.9816C162.491 40.5938 163.879 39.5529 163.763 36.199C163.532 30.6477 163.532 25.0964 164.11 19.6608C165.382 7.74867 174.056 0.115652 186.315 0C203.547 0 220.779 0 238.011 0C249.576 0 261.142 0 272.591 0C286.816 0.115652 295.722 8.78953 296.068 22.899C296.184 27.8721 295.953 32.7294 296.184 37.7025C296.3 38.9746 297.341 40.9407 298.497 41.4033C323.594 50.3085 346.03 63.6085 366.385 81.3032C371.242 78.5275 376.099 75.7519 380.957 72.9763C393.91 65.6902 406.053 68.9284 413.455 81.8814C427.565 106.168 441.558 130.571 455.552 154.858C463.185 168.158 460.063 179.954 446.763 187.703C443.062 189.9 439.361 192.098 435.545 194.064C433.347 195.22 432.422 196.492 433 199.152C437.858 224.017 437.742 248.998 433 273.863C432.538 276.292 433.116 277.796 435.429 279.068C439.824 281.381 443.987 283.809 448.266 286.354C459.484 293.293 463.07 305.205 456.593 316.539C442.021 342.214 427.333 367.773 412.414 393.1C405.938 404.087 393.794 407.094 382.345 400.965C376.909 398.073 371.705 394.951 366.269 391.828C351.466 404.665 335.39 415.421 317.811 423.632C312.26 426.177 306.593 428.605 300.81 430.571C297.341 431.844 295.722 433.347 295.953 437.395C296.3 442.946 296.184 448.497 295.606 453.933C294.565 463.532 288.204 470.124 278.721 472.09C278.374 472.206 278.142 472.669 277.911 472.9C245.297 472.9 212.684 472.9 180.07 472.9ZM229.569 459.022C243.678 459.022 257.903 459.022 272.013 459.022C279.183 459.022 282.075 456.246 282.19 448.96C282.306 442.137 282.306 435.429 282.19 428.605C282.075 424.326 284.041 421.551 288.089 420.278C315.035 411.72 338.86 397.842 359.677 378.875C363.147 375.753 366.616 375.521 370.548 377.95C376.331 381.419 382.229 384.773 388.127 388.127C394.026 391.481 397.842 390.556 401.196 384.773C415.537 360.14 429.762 335.39 443.987 310.641C447.225 305.089 446.069 301.157 440.633 297.919C435.198 294.681 429.762 291.674 424.326 288.435C417.85 284.735 417.387 283.115 418.544 275.714C420.163 264.611 421.898 253.509 422.591 242.406C423.517 227.14 421.782 211.99 418.544 197.071C417.156 190.363 417.965 188.397 423.864 185.043C429.415 181.805 435.082 178.682 440.633 175.328C446.184 172.09 447.225 168.158 444.103 162.606C429.878 137.857 415.652 113.107 401.312 88.4736C397.958 82.691 394.026 81.7658 388.127 85.004C382.345 88.2423 376.562 91.3649 371.011 94.9501C366.732 97.6101 363.147 97.1475 359.33 93.7936C338.628 75.058 315.035 61.4111 288.435 52.8529C283.925 51.465 282.075 48.5737 282.19 43.9477C282.306 37.5868 282.306 31.3416 282.19 24.9808C282.19 16.8852 279.415 14.1095 271.435 14.1095C243.563 14.1095 215.691 14.1095 187.934 14.1095C180.417 14.1095 177.641 16.8852 177.525 24.4025C177.41 30.9947 177.41 37.5868 177.525 44.2946C177.641 48.805 175.675 51.5807 171.396 52.8529C144.68 61.4111 120.972 75.1736 100.154 94.0249C96.6849 97.1475 93.2153 97.3788 89.0519 94.8344C83.3849 91.3649 77.718 88.1266 71.9354 84.8884C65.8059 81.4188 61.8737 82.344 58.5198 88.3579C44.179 112.992 30.0695 137.51 15.8443 162.144C12.4904 167.926 13.5313 171.859 19.3139 175.212C24.6338 178.335 29.9538 181.342 35.2738 184.465C42.0973 188.397 42.4442 189.785 41.172 197.533C39.5529 208.289 37.9338 219.16 37.1242 230.031C36.0834 245.413 37.8181 260.679 41.0564 275.829C42.5599 282.884 41.7503 284.735 35.6208 288.204C30.0695 291.442 24.4025 294.565 18.8512 297.919C13.5313 301.157 12.3747 304.974 15.4973 310.294C29.8382 335.159 44.179 360.024 58.5198 384.889C61.758 390.44 65.6902 391.366 71.2415 388.243C77.1397 385.005 83.038 381.651 88.8206 378.066C92.984 375.521 96.4536 375.984 100.039 379.222C120.856 398.073 144.565 411.836 171.28 420.394C175.559 421.782 177.41 424.558 177.294 429.068C177.178 435.429 177.294 441.674 177.294 448.035C177.294 456.477 179.954 459.137 188.281 459.137C202.159 459.022 215.922 459.022 229.569 459.022Z" fill="white"/>
<path d="M370.201 236.508C369.392 314.804 307.171 376.678 229.8 376.446C151.157 376.215 89.7457 313.185 89.977 236.045C90.0926 158.674 153.123 96.2221 230.031 96.1064C306.824 96.2221 370.317 159.715 370.201 236.508ZM356.323 236.392C356.092 167.001 299.191 110.216 230.031 110.1C160.871 110.1 103.508 166.885 103.74 236.276C103.971 306.708 159.946 362.568 230.147 362.684C299.769 362.799 356.554 305.436 356.323 236.392Z" fill="white"/>
<path d="M401.08 191.057C401.08 195.22 399.461 197.649 396.107 198.574C392.522 199.499 389.631 198.227 388.127 194.873C386.971 192.329 386.277 189.669 385.467 187.009C374.827 153.701 355.282 126.639 327.41 105.59C325.675 104.318 323.941 103.046 322.321 101.658C318.968 98.7665 318.274 94.95 320.355 91.9431C322.668 88.5892 326.832 87.7796 330.417 90.6709C338.86 97.3787 347.534 103.855 355.167 111.373C376.678 132.768 391.712 158.096 400.155 187.356C400.502 188.744 400.849 190.247 401.08 191.057Z" fill="white"/>
<path d="M214.534 412.877C193.485 410.911 174.172 405.822 155.783 397.264C138.088 389.168 122.128 378.297 107.903 364.881C103.971 361.18 103.393 357.133 106.284 354.01C109.06 351.003 112.876 351.119 116.924 354.473C118.659 355.976 120.278 357.595 122.128 358.983C128.142 363.725 134.04 368.698 140.517 372.861C162.838 387.665 187.356 395.992 213.956 398.883C215.691 399.114 218.235 399.461 218.929 400.618C220.317 402.815 221.358 405.822 221.242 408.366C221.126 411.489 217.772 412.992 214.534 412.877Z" fill="white"/>
<path d="M81.8815 311.103C82.8067 311.797 85.2354 312.953 86.6232 314.92C89.7458 319.314 92.4058 323.94 95.0658 328.566C97.3788 332.614 96.4536 336.546 92.984 338.628C89.7458 340.479 85.9293 339.553 83.3849 335.852C80.2623 331.111 77.2554 326.369 74.4798 321.28C71.8198 316.423 74.9424 311.219 81.8815 311.103Z" fill="white"/>
<path d="M281.15 66.384C288.436 69.391 294.912 71.5884 300.926 74.711C303.933 76.2144 304.396 80.2622 302.429 82.8066C300.926 84.657 297.456 86.6231 295.375 86.1605C289.592 84.8883 284.041 82.5753 278.605 80.1466C275.136 78.6431 273.979 75.2892 275.367 72.051C276.408 69.8536 279.068 68.3501 281.15 66.384Z" fill="white"/>
<path d="M236.855 250.386C236.855 255.822 236.97 260.216 236.855 264.611C236.739 269.816 234.195 272.707 230.031 272.822C225.637 272.938 222.977 269.931 222.977 264.496C222.861 245.76 222.861 227.024 222.977 208.289C222.977 202.506 225.405 199.962 230.957 199.846C240.324 199.731 249.692 199.615 259.06 200.309C271.55 201.234 281.381 212.799 281.265 225.521C281.034 238.243 271.435 249.345 259.176 250.27C252.005 250.849 244.719 250.386 236.855 250.386ZM237.202 236.623C244.141 236.623 250.849 236.97 257.556 236.508C262.992 236.161 267.271 230.957 267.503 225.521C267.618 219.97 263.455 214.534 257.672 214.071C250.964 213.609 244.257 213.956 237.317 213.956C237.202 221.589 237.202 228.99 237.202 236.623Z" fill="white"/>
<path d="M182.036 199.846C189.438 199.846 190.594 200.656 193.138 207.595C199.731 225.29 206.438 242.869 213.03 260.563C213.493 261.836 213.956 263.223 214.187 264.496C214.881 268.312 213.493 271.203 209.792 272.475C206.091 273.748 203.084 272.244 201.35 268.775C200.193 266.462 199.268 263.917 198.574 261.489C197.88 259.06 196.724 258.019 194.064 258.135C185.737 258.366 177.41 258.135 169.083 258.366C167.695 258.366 166.076 259.869 165.266 261.142C164.225 262.645 163.878 264.496 163.3 266.23C161.103 272.013 157.633 274.095 153.354 272.475C149.306 270.972 148.15 267.156 150.232 261.604C154.048 251.08 157.98 240.671 161.912 230.147C164.688 222.861 167.348 215.459 170.124 208.173C173.015 200.54 174.171 199.846 182.036 199.846ZM181.805 216.731C178.104 226.677 174.865 235.351 171.627 244.141C178.682 244.141 185.158 244.141 192.098 244.141C188.744 235.12 185.505 226.562 181.805 216.731Z" fill="white"/>
<path d="M289.708 235.929C289.708 226.909 289.708 217.772 289.708 208.751C289.708 203.084 292.021 200.193 296.3 200.077C300.81 199.962 303.47 203.084 303.586 208.751C303.702 227.255 303.586 245.644 303.586 264.148C303.586 264.727 303.586 265.421 303.47 265.999C302.892 270.394 300.232 273.054 296.3 272.822C292.368 272.707 289.708 270.047 289.708 265.536C289.592 255.706 289.708 245.875 289.708 235.929Z" fill="white"/>
<path d="M181.805 216.731C185.505 226.562 188.744 235.12 192.098 244.141C185.158 244.141 178.682 244.141 171.627 244.141C174.865 235.351 178.104 226.677 181.805 216.731Z" fill="#F1F1F1"/>
</g>
<defs>
<clipPath id="clip0_325_84">
<rect width="459.831" height="472.9" fill="white"/>
</clipPath>
</defs>
</svg>
