<svg width="319" height="265" viewBox="0 0 319 265" fill="none" xmlns="http://www.w3.org/2000/svg">
<path d="M62.2 33.2889C65.5 29.9889 68.9 26.7889 72.2 23.4889C72.7 22.9889 73.1 22.2889 73.1 21.6889C73.1 14.6889 77.1 10.0889 82.6 6.98889C87.7 4.08889 93.4 2.28889 98.8 0.0888889C99.2 -0.111111 99.8 0.0888889 100.3 0.0888889C98.5 11.0889 89.3 22.5889 77.7 24.1889C75.6 24.4889 73.6 25.8889 71.8 27.0889C70.3 28.0889 69.3 29.7889 68 31.2889C76 29.0889 83.7 30.7889 92.1 32.5889C87.5 39.3889 81.8 43.4889 74.4 44.2889C70.8 44.6889 67 43.9889 63.5 43.0889C59 41.8889 58.2 41.7889 55.5 45.6889C53.9 47.9889 52.4 50.3889 50.9 52.6889C50.7 52.9889 50.6 53.2889 50.4 53.5889C50.8 53.4889 51.2 53.3889 51.6 53.2889C59.2 49.3889 67.4 49.7889 76.1 49.1889C74.6 53.5889 72 56.5889 69.1 59.1889C63.3 64.4889 56.6 67.4889 48.4 66.1889C43.6 65.3889 43.2 65.8889 41.2 70.3889C39.7 73.8889 38.2 77.3889 36.8 80.5889C44.6 76.8889 52.7 72.9889 60.8 69.1889C61 69.4889 61.3 69.7889 61.5 70.0889C59.7 75.8889 57 81.2889 53.4 86.0889C49.2 91.6889 43.9 95.4889 36.6 96.2889C32.3 96.7889 31.5 97.6889 30.6 102.089C29.6 106.989 28.7 111.989 28.1 117.189C33 107.589 42 102.489 49.7 95.8889C50 95.9889 50.4 96.1889 50.7 96.2889C50.3 99.6889 50.2 103.189 49.4 106.489C46.7 117.189 41.8 126.489 31.1 131.289C28.1 132.589 26.8 134.989 27 138.289C27.3 143.289 27.5 148.389 28.1 153.489C31.4 142.589 39.2 134.589 45.5 125.789C45.9 125.889 46.2 125.989 46.6 125.989C46.9 128.789 47.4 131.589 47.4 134.389C47.2 146.289 44 157.089 34.7 165.289C31.6 167.989 30.4 171.089 32.1 175.189C33.8 179.389 34.9 183.789 36.4 188.489C37.9 182.689 39 177.489 40.7 172.389C42.3 167.289 44.5 162.489 46.4 157.489C46.8 157.489 47.1 157.489 47.5 157.489C48.5 160.189 49.9 162.889 50.6 165.689C53.6 177.289 53 188.489 46.5 198.989C44.4 202.389 43.9 205.489 46.6 208.989C48.9 211.989 50.8 215.289 53.3 218.989C53 214.889 52.4 211.289 52.4 207.689C52.4 203.989 53 200.289 53.4 196.489C53.8 192.789 54.2 189.089 54.7 184.789C55.8 185.689 56.6 185.989 57.1 186.589C66.1 198.089 69.3 210.889 64.9 225.089C63.8 228.589 63.7 231.089 67.2 233.489C70.8 235.989 74.2 238.689 77.6 241.289C78 241.589 78.4 241.889 78.8 242.289C78.9 242.189 79 242.089 79.1 241.889C78.9 241.489 78.6 241.089 78.4 240.789C73.7 232.989 73.1 224.089 71.6 215.489C71.4 214.289 71.3 213.089 71.2 211.789C71.2 211.689 71.3 211.589 71.6 211.189C75.4 212.389 78.5 214.789 81.3 217.689C87.7 224.389 91.2 232.389 91 241.789C90.9 248.989 91 248.989 97.6 251.389C99.3 251.989 101.1 252.489 102.9 253.089C104.6 253.589 106.4 254.189 108.1 254.689C107.3 257.589 106 258.589 103.3 257.589C100.4 256.489 97.4 255.789 94.4 254.789C91.9 253.989 89.8 254.289 88.3 256.789C85.9 260.589 82.1 262.589 77.9 263.489C69.2 265.389 60.8 264.289 52.7 260.589C51.1 259.889 49.7 258.489 48 257.289C56.7 249.789 66 245.489 77.9 247.189C77.3 246.389 77.1 245.989 76.7 245.789C73.2 243.189 69.7 240.589 66.2 237.989C64.2 236.489 62.4 236.189 60.4 237.989C57.4 240.689 53.6 241.489 49.7 241.189C39.1 240.189 30.2 235.989 23.4 227.689C23.1 227.289 22.9 226.789 22.4 225.989C32.6 220.989 42.5 220.789 52.7 225.289C52.9 225.389 53.2 225.489 53.4 225.589C53.4 225.289 53.4 225.089 53.4 224.789C50.5 220.689 47.6 216.489 44.6 212.389C43.1 210.289 41.4 208.989 38.3 210.189C34 211.789 29.6 210.889 25.7 208.689C17.3 203.789 11.2 196.789 7.7 187.689C7.4 186.889 7.3 185.889 7 184.589C18.1 184.989 28 187.289 35.7 196.989C35.3 195.389 35.2 194.589 34.9 193.789C33 188.489 31 183.089 29.1 177.789C28 174.889 26.6 172.889 22.9 173.089C18.8 173.189 15.8 170.689 13.1 167.789C7.4 161.689 3.7 154.489 1.3 146.589C1 145.589 0.4 144.589 0 143.589C0 141.889 0 140.289 0 138.589C3.4 139.889 7 140.889 10.1 142.689C16 146.089 20.1 151.289 23.5 157.089C23.8 157.589 24.1 157.989 24.9 158.289C24.5 152.489 24.2 146.589 23.5 140.789C23.3 138.889 22.3 137.289 19.9 136.689C16.2 135.689 13.7 132.889 11.9 129.689C6.5 119.789 4.4 109.089 4.9 97.8889C4.9 97.3889 5 96.8889 5.2 96.3889C5.1 95.9889 5.4 95.6889 5.7 95.1889C15.5 101.789 21.2 110.989 24.2 122.189C24.3 121.589 24.5 120.989 24.6 120.389C25 116.889 25.6 113.389 25.6 109.889C25.6 107.689 25.3 104.589 23.9 103.289C15.5 95.3889 14.9 85.4889 15.5 75.0889C15.7 71.0889 16.5 67.0889 17.2 63.0889C17.5 61.5889 18.1 60.1889 18.8 58.1889C27 67.0889 30.7 76.8889 30.2 88.5889C30.5 88.1889 30.8 87.7889 31 87.2889C32.2 83.9889 33.4 80.6889 34.6 77.3889C35.6 74.5889 35.2 72.1889 33.5 69.5889C31.7 66.8889 30 63.6889 29.8 60.5889C29.1 49.6889 31.4 39.1889 36.6 29.3889C37 28.6889 37.6 28.0889 38.5 26.8889C44.6 37.6889 45.2 48.5889 42.9 60.0889C44.7 57.1889 46.6 54.2889 48.5 51.3889C49.5 49.8889 50.8 48.5889 51.4 46.9889C52 45.2889 52.6 42.6889 51.8 41.4889C47.8 35.2889 48.8 28.8889 50.7 22.5889C53 13.9889 57.8 6.98889 65 0.588889C67.8 12.1889 66 22.6889 61.8 32.8889C61.7 33.0889 61.6 33.3889 61.6 33.5889C61.8 33.4889 62 33.3889 62.2 33.2889ZM78.1 247.089C78 247.089 78 246.989 77.9 246.989C77.9 247.089 77.9 247.289 77.9 247.389C78 247.389 78.1 247.289 78.1 247.289C78.1 247.289 78.1 247.189 78.1 247.089Z" fill="white"/>
<path d="M113.8 195.289C115.1 187.589 116.5 179.589 117.9 171.689C119 165.489 120.2 159.189 121 152.989C121.1 151.989 120.4 150.489 119.6 149.689C110 140.189 100.3 130.789 90.6 121.389C89 119.789 87.4 118.289 88.3 115.789C89.2 113.489 91.3 113.189 93.4 112.889C106.6 110.989 119.9 109.089 133.1 107.189C135 106.889 136.1 106.189 137 104.389C142.8 92.2889 148.9 80.1889 154.8 68.1889C155.7 66.2889 156.6 64.3889 159.2 64.3889C161.7 64.3889 162.7 66.2889 163.6 68.1889C169.6 80.2889 175.6 92.2889 181.4 104.389C182.3 106.189 183.4 106.989 185.3 107.289C198.7 109.189 212 110.989 225.3 113.089C227 113.389 229.1 114.489 230 115.789C231.3 117.789 229.7 119.589 228.1 121.189C218.3 130.689 208.6 140.189 198.8 149.689C197.5 150.989 197.1 152.189 197.4 153.989C199.8 167.489 202.2 180.989 204.3 194.489C204.6 196.089 204 198.589 202.8 199.389C201.7 200.189 199.2 199.989 197.7 199.289C185.5 193.089 173.4 186.689 161.4 180.289C159.6 179.389 158.4 179.289 156.6 180.289C144.5 186.789 132.3 193.189 120 199.589C116.7 201.289 113.6 199.489 113.8 195.289Z" fill="white"/>
<path d="M241.2 241.489C245.3 238.289 249.6 235.489 253.4 231.889C254.5 230.789 254.6 227.689 254 225.889C250.3 213.989 251.8 202.789 258 192.089C259.4 189.689 261.3 187.489 263.6 185.389C264.8 196.389 268.1 207.089 264.9 219.089C266.4 217.289 267.4 216.289 268.2 215.089C269.7 212.989 270.9 210.589 272.4 208.589C274.7 205.689 274.5 202.889 272.7 199.989C266 189.689 265.2 178.489 267.9 166.789C268.7 163.689 270 160.689 271.7 157.689C276 167.689 281 177.189 281.6 188.489C282 187.889 282.5 187.389 282.7 186.689C284.2 181.989 285.7 177.189 287.1 172.489C288 169.489 286 167.489 284.1 165.789C276.9 159.589 273.2 151.489 271.7 142.389C270.8 136.989 271 131.489 272.5 125.889C279.3 134.289 286.7 142.089 290 152.789C290.3 152.789 290.7 152.689 291 152.689C291.1 146.989 291.6 141.289 291.2 135.589C291.1 133.989 288.7 131.989 287 131.089C273.1 123.889 269.1 111.289 268 96.989C268 96.689 268.3 96.489 268.7 95.689C276.2 102.389 285.2 107.289 290.2 116.689C290.1 115.389 290 113.989 289.9 112.689C289.7 111.389 289.6 109.989 289.3 108.689C288.8 106.189 288.1 103.589 287.8 101.089C287.4 98.289 285.8 96.589 283.1 96.589C270.4 96.389 261 83.289 257 69.289C265.6 73.089 274.3 75.289 281.7 81.289C280.9 79.089 280.1 76.789 279.3 74.589C278.8 73.289 278.2 72.089 277.7 70.889C275.4 65.689 274.9 65.189 269.2 66.189C259.2 68.089 247.5 60.089 242.7 50.189C242.6 49.989 242.7 49.789 242.8 49.589C248.9 48.789 262 49.889 268.1 53.089C267.1 51.489 266.1 49.789 265 48.189C264.3 47.089 263.3 46.089 262.7 44.889C261.1 41.789 258.7 41.589 255.9 42.789C245.5 47.389 234 42.489 227.5 34.089C227.3 33.789 227.2 33.389 226.8 32.489C234.6 30.789 242.2 28.989 250.3 30.889C247.5 28.189 245.7 24.689 241.1 24.089C229.8 22.389 220.9 13.089 218.2 0.289006C218.7 0.189006 219.2 -0.110994 219.6 0.0890055C225.6 2.68901 231.8 4.78901 237.4 7.98901C242.2 10.789 245.5 15.389 245.5 21.589C245.5 22.189 245.7 22.889 246.1 23.289C249.5 26.789 253 30.089 256.7 33.389C252.8 22.889 250.9 12.389 253.5 1.48901C253.8 1.28901 254.1 1.18901 254.4 0.989006C256.7 3.58901 259.1 6.08901 261.2 8.78901C266.2 15.489 269.4 22.989 269.5 31.489C269.5 34.389 268.6 37.389 267.4 40.089C266.1 42.989 266.1 45.389 267.8 47.889C270.4 51.789 273 55.789 275.4 59.589C275.2 54.189 274.6 48.689 274.9 43.189C275.2 37.589 276.8 32.289 280.2 26.989C281 28.189 281.8 28.989 282.3 29.889C287.3 39.389 289.4 49.589 288.8 60.189C288.6 63.489 286.8 66.889 285 69.789C283.7 71.989 283 73.989 283.6 76.189C284.8 80.289 286.5 84.289 288.2 88.289C288.3 76.989 291.5 66.989 299.9 57.989C300.8 61.489 302 64.289 302.2 67.089C302.6 74.289 302.9 81.589 302.4 88.789C302.1 93.989 299.4 98.489 295.5 101.989C292.9 104.289 292.4 107.089 292.9 110.489C293.5 114.289 293.8 118.089 294.5 121.989C297.6 110.989 303 101.589 313.6 94.689C313.6 99.389 314.2 103.489 313.5 107.389C312.2 114.089 310.3 120.689 308.1 127.089C306.5 131.789 303.1 135.189 298.1 137.189C296.7 137.789 295.4 140.189 295.2 141.989C294.5 147.489 294.3 152.989 293.9 158.289C297.3 154.289 300.4 149.889 304.3 146.089C308.2 142.189 313 139.489 318.8 138.189C319.1 143.089 317.8 147.389 315.9 151.289C313 156.989 309.5 162.389 305.8 167.589C303.2 171.289 299.3 173.389 294.5 173.189C291.3 173.089 290.6 175.589 289.8 177.689C287.8 182.789 286 187.989 284.1 193.089C283.8 193.989 283.4 194.789 283.1 195.489C287.2 192.889 291.3 189.489 295.9 187.589C300.7 185.689 306 185.189 311.5 183.889C311.5 185.289 311.6 185.789 311.5 186.289C307.2 197.789 300.3 206.789 288 210.389C285.7 211.089 282.7 210.889 280.4 210.089C277.5 209.189 275.8 210.389 274.4 212.289C271.4 216.389 268.5 220.589 265.6 224.689C265.4 224.989 265.2 225.289 265 225.589C265.4 225.489 265.9 225.389 266.3 225.389C277.1 220.289 289.4 221.889 296.4 226.389C295.5 227.589 294.8 228.989 293.7 229.989C286.2 236.989 277.5 241.689 267 241.189C264.1 241.089 261 239.589 258.5 237.989C256.2 236.589 254.6 236.589 252.7 238.089C248.6 241.189 244.5 244.289 240.3 247.489C252 245.289 261.8 249.489 270.9 257.389C269.5 258.589 268.3 259.789 266.9 260.489C257.9 264.689 248.4 266.189 238.9 262.889C235.8 261.789 233 259.189 230.7 256.689C228.9 254.889 227.3 254.189 225 254.789C221.9 255.689 218.8 256.489 215.8 257.589C213.1 258.589 211.7 257.789 210.8 254.689C212.7 254.089 214.7 253.589 216.6 252.989C218.8 252.289 220.9 251.589 223.1 250.789C228.1 248.989 228.2 248.889 228 243.489C227.7 235.489 229.4 228.089 234.4 221.889C237.6 218.089 241.8 215.089 245.6 211.789C246.1 211.389 246.9 211.389 248.1 210.989C246.1 221.489 245.9 231.789 240.5 240.889C240.4 240.989 240.3 241.089 240.3 241.089C240.1 241.489 239.9 241.789 239.7 242.189C240 242.089 240.3 241.889 240.6 241.789C240.7 241.789 240.9 241.689 241.2 241.489Z" fill="white"/>
</svg>
