<svg width="347" height="347" viewBox="0 0 347 347" fill="none" xmlns="http://www.w3.org/2000/svg">
<path d="M62.7999 226.9C68.5999 225.3 73.2999 222.4 77.2999 218.4C86.8999 209.1 97.6999 202 110.7 198.6C127.8 194.2 144.4 195.7 160.2 203.5C169.1 208 178.4 210.1 188.3 209.7C193.7 209.5 199.1 209.4 204.4 209.7C210.4 210.1 215.6 208.7 220.6 205.5C225.5 202.4 230.8 199.7 236 197.1C247.7 191.1 259 191.7 270 198.9C271 199.6 272.8 200 273.8 199.6C286.5 193.8 295.2 195.3 304.5 204.4C311.1 203.3 317 201.5 322.9 201.5C331.8 201.5 338.8 205.9 344.1 213.1C347.3 217.4 347 219.3 342.6 222.3C312.8 242.8 282.9 263.2 253.1 283.8C244.6 289.7 236.2 295.7 225.9 298.4C212.2 302 198.5 301.7 184.7 299C166.5 295.4 148.2 292.1 129.9 288.8C125.4 288 120.9 288.4 116.9 290.9C107.3 296.9 97.6999 303 87.7999 309.3C88.9999 313.4 90.1999 317.6 91.3999 321.7C93.1999 327.5 94.9999 333.4 96.6999 339.2C98.1999 344.1 96.4999 346.4 91.3999 346.4C68.2999 346.4 45.1999 346.4 21.9999 346.4C17.4999 346.4 16.1999 345.4 15.5999 340.9C13.4999 323.8 11.3999 306.7 9.39991 289.6C6.49991 265.8 3.59991 242 0.699905 218.2C0.399905 215.8 0.0999053 213.5 -0.200095 211.1C-0.600095 207.3 1.09991 205.3 4.79991 205.3C20.4999 205.2 36.2999 205.3 51.9999 205.3C55.0999 205.3 56.4999 207 57.2999 209.7C59.2999 215.3 60.9999 221 62.7999 226.9ZM247.8 239.3C247.6 238.1 247.5 237.1 247.2 236.2C244.2 226.5 234.7 219.1 224.5 218.9C214.4 218.7 204.2 218.5 194.1 218.9C179.7 219.5 166.5 216.4 153.2 210.6C129.7 200.5 107.5 204.2 87.9999 221.1C81.1999 227 74.5999 233.1 65.2999 235.7C71.8999 257.3 78.3999 278.7 84.9999 300.4C94.0999 294.7 102.8 289.3 111.4 283.7C117.4 279.9 123.9 278.6 130.8 279.8C139.4 281.2 148 283 156.6 284.5C170.7 287 184.8 290 199 291.8C212.5 293.5 225.9 291.3 237.4 283.6C269.1 262.3 300.4 240.5 331.9 218.8C333 218 334.1 217.2 335.2 216.4C328.3 209.7 319.8 208.4 311.6 212.7C294.2 221.9 276.9 231.3 259.6 240.7C258.7 241.2 257.7 242.1 257.5 243C256.1 248.3 255.6 248.6 250.2 248.4C230 247.7 209.8 245.5 189.6 248.1C185.8 248.6 183.8 247.1 183.6 244.2C183.4 240.6 185.8 239.3 188.8 239.2C199 238.7 209.2 238.1 219.5 238.1C228.8 238.2 238.2 238.9 247.8 239.3ZM9.59991 214.4C14.5999 255.6 19.5999 296.4 24.5999 337.1C45.6999 337.1 66.1999 337.1 86.9999 337.1C74.3999 296 61.9999 255.2 49.4999 214.4C36.0999 214.4 22.9999 214.4 9.59991 214.4ZM297.5 210.1C292.4 205.9 287 203.4 281.3 206.2C270.8 211.3 260.6 217.1 250.4 222.6C252.3 225.9 254 229.1 255.9 232.4C269.6 225.2 283.3 217.8 297.5 210.1ZM231.5 210.2C235 212 238.6 213.9 242.3 215.6C243 215.9 244.2 215.7 245 215.3C251 212.2 256.8 209 262.8 205.8C255.7 199.8 244.3 201.5 231.5 210.2Z" fill="white"/>
<path d="M232.8 160.9C232.8 164 232.8 166.5 232.8 168.9C232.8 174.4 231.7 175.5 226.3 175.5C207.2 175.5 188.1 175.5 168.9 175.5C152.7 175.5 136.4 175.5 120.2 175.5C114.9 175.5 113.8 174.4 113.8 169.2C113.8 166.8 113.8 164.5 113.8 162.1C113.8 161.9 113.7 161.6 113.6 160.8C112.4 160.8 111.1 160.8 109.7 160.8C86.7998 160.8 63.9998 160.8 41.0998 160.8C34.8998 160.8 33.6998 159.7 33.6998 153.4C33.6998 144.2 33.4998 134.9 33.7998 125.7C34.1998 108.8 48.4998 94.2 64.8998 93.5C67.4998 93.4 69.2998 94.1 71.0998 96.1C80.0998 106.1 93.3998 106.3 102.5 96.3C104.9 93.7 107.5 93 110.5 93.8C114.7 94.9 118.8 96.4 123.2 97.8C130 90.5 138.5 86 149 85.3C151.6 85.1 153.4 86 155.2 88C165.7 99.8 181.8 100 192.2 88.2C194.9 85.1 197.9 85.1 201.3 85.7C210.1 87.3 217.4 91.4 222.9 97.5C228.4 96.1 233.5 94.5 238.7 93.7C240.5 93.4 243.1 94.7 244.4 96.1C253.6 106.1 267.1 106.2 276.2 96.1C278.2 93.9 280.4 93.3 283.2 93.6C298.9 95.4 312 109.3 312.5 125.2C312.8 135.3 312.6 145.4 312.6 155.6C312.6 159.5 310.8 160.9 306.1 160.9C283.1 160.9 260.1 160.9 237.1 160.9C235.9 160.9 234.5 160.9 232.8 160.9ZM223.6 166.4C223.6 150.9 224 135.8 223.5 120.7C223.1 108.1 213.8 97.7 201.6 95.1C200.3 94.8 198.2 95.4 197.2 96.3C183.6 109 163.9 108.9 150.5 96.2C149.4 95.2 147.2 94.5 145.7 94.9C132.3 97.8 123.1 108.8 122.9 122.6C122.7 136.1 122.8 149.6 122.8 163.1C122.8 164.2 122.8 165.3 122.8 166.5C156.5 166.4 189.9 166.4 223.6 166.4ZM113.4 151.7C115.1 136.2 110.8 120.5 117.7 105.6C115.7 104.8 113.8 103.7 111.8 103.4C110.4 103.2 108.4 103.6 107.3 104.5C95.1998 115.4 78.2998 115.3 66.1998 104.3C65.1998 103.4 63.2998 102.8 62.0998 103.1C51.9998 105.6 44.7998 111.9 43.4998 122.2C42.2998 131.8 43.1998 141.8 43.1998 151.7C66.4998 151.7 89.8998 151.7 113.4 151.7ZM303.5 151.7C303.5 142.3 304.1 133.1 303.3 123.9C302.5 113.6 294.5 105.3 284.9 103.2C283.8 103 282.2 103.3 281.3 104C267.7 115.5 252.7 115.5 239.4 103.9C238.6 103.2 236.9 102.7 235.9 103C233.4 103.5 231 104.6 228.6 105.4C235.8 120.6 231.3 136.4 233.1 151.6C256.7 151.7 280 151.7 303.5 151.7Z" fill="white"/>
<path d="M139.2 42C138.6 31.8 139.5 22.9 144.9 14.9C153.1 3.1 167.6 -2.5 181.4 1C195.6 4.7 206 16.1 207 30.7C207.6 39.5 207.7 48.6 206 57.1C202.7 73.3 186.8 84.3 170.8 82.7C153.2 81 140.4 68.1 139.3 50.8C139 47.6 139.2 44.3 139.2 42ZM147.7 41.5C147.9 41.5 148 41.5 148.2 41.5C148.2 44.6 148 47.8 148.2 50.9C149.1 63.6 159.6 73.4 172.5 73.8C185.1 74.3 196.6 64.7 197.8 52C198.5 45.1 198.5 38 197.9 31.1C196.9 18.9 186.8 9.8 174.5 9C162.8 8.3 151.8 16.1 149 27.8C148 32.2 148.1 36.9 147.7 41.5Z" fill="white"/>
<path d="M55.5999 55.4001C55.9999 51.1001 55.8999 46.6001 56.7999 42.4001C60.0999 27.7001 73.9999 17.4001 88.3999 18.8001C104.1 20.3001 116 32.1001 116.7 47.6001C117 54.2001 117.1 60.9001 116.1 67.4001C114 82.6001 99.8999 93.6001 84.7999 92.7001C68.8999 91.7001 56.5999 79.4001 55.9999 63.7001C55.8999 61.0001 55.9999 58.2001 55.9999 55.5001C55.8999 55.5001 55.6999 55.4001 55.5999 55.4001ZM64.6999 55.6001C64.7999 55.6001 64.8999 55.6001 64.9999 55.6001C64.9999 58.2001 64.8999 60.9001 64.9999 63.5001C65.4999 74.3001 73.8999 82.8001 84.9999 83.7001C95.1999 84.6001 105.4 77.2001 107.1 66.9001C108.1 60.4001 108.2 53.7001 107.6 47.1001C106.7 36.4001 98.2999 28.6001 87.4999 27.8001C77.5999 27.0001 67.9999 34.0001 65.6999 44.1001C64.7999 47.8001 64.9999 51.7001 64.6999 55.6001Z" fill="white"/>
<path d="M290.9 55.9C290.2 61.1 290.3 66.4 288.8 71.4C284.8 85.1 270.9 94.2 257.3 92.6C241.9 90.8 230.3 79.2 229.6 64.1C229.3 57.4 229.2 50.6 230.2 43.9C232.3 28.9 246.4 17.9 261.3 18.8C277.2 19.7 289.6 32 290.3 47.6C290.4 50.3 290.3 53.1 290.3 55.8C290.5 55.8 290.7 55.9 290.9 55.9ZM281.6 56C281.5 56 281.4 56 281.3 56C281.3 53.4 281.4 50.8 281.3 48.1C280.8 37.1 272.3 28.6 261.1 27.8C250.9 27 240.8 34.4 239.2 44.8C238.2 51.1 238.2 57.7 238.7 64.2C239.4 74.9 248.1 83 258.8 83.8C268.9 84.5 278.5 77.4 280.7 67.2C281.5 63.5 281.3 59.7 281.6 56Z" fill="white"/>
<path d="M53.0999 332.9C45.1999 332.9 38.8999 326.5 38.8999 318.6C38.8999 310.9 45.3999 304.5 52.9999 304.6C60.7999 304.6 67.2999 311.2 67.1999 319C67.0999 326.6 60.7999 332.9 53.0999 332.9ZM52.8999 323.9C55.7999 323.9 58.1999 321.7 58.1999 318.8C58.1999 316.1 55.6999 313.4 52.9999 313.6C50.0999 313.8 48.1999 315.5 47.8999 318.5C47.6999 321.4 50.0999 323.8 52.8999 323.9Z" fill="white"/>
</svg>
