<svg width="384" height="513" viewBox="0 0 384 513" fill="none" xmlns="http://www.w3.org/2000/svg">
<path d="M191.853 512.004C149.853 512.004 107.853 512.104 65.8528 512.004C31.4528 511.904 4.45281 487.604 0.152809 453.504C-0.347191 449.204 0.352809 445.504 2.65281 441.704C39.2528 381.804 75.8528 322.004 112.153 262.004C114.353 258.304 114.953 253.104 114.953 248.604C115.153 219.904 115.053 191.304 115.153 162.604C115.153 160.004 114.553 158.604 111.753 157.504C99.8528 153.004 93.2528 141.304 95.2528 129.304C97.3528 117.004 106.953 108.104 119.853 107.904C126.453 107.804 129.853 106.504 132.353 99.7035C136.753 87.8035 148.953 81.2035 161.453 81.8035C173.953 82.4035 184.953 90.5035 189.053 103.004C190.353 107.104 192.353 107.804 196.153 107.804C217.653 107.604 239.153 107.704 260.653 107.604C272.253 107.604 281.053 112.104 286.153 122.704C292.653 136.104 286.353 151.603 272.253 157.403C269.253 158.603 268.253 160.103 268.353 163.203C268.453 191.503 268.453 219.904 268.453 248.204C268.453 254.604 269.953 260.404 273.453 266.104C309.453 324.704 345.253 383.503 380.953 442.303C382.753 445.303 383.653 449.504 383.353 453.004C379.753 487.304 352.553 511.804 317.853 512.004C275.853 512.104 233.853 511.904 191.853 512.004C191.853 512.004 191.853 511.904 191.853 512.004ZM204.553 356.104C226.553 356.204 244.653 338.104 244.753 316.104C244.853 294.404 226.753 276.204 205.053 276.004C183.053 275.804 164.753 293.803 164.653 315.803C164.553 337.903 182.553 356.004 204.553 356.104ZM111.453 355.704C96.2528 355.704 83.9528 368.004 84.0528 382.904C84.1528 397.604 96.7528 410.104 111.253 409.904C126.153 409.704 138.353 397.503 138.353 382.803C138.453 368.003 126.153 355.704 111.453 355.704ZM213.653 435.604C213.753 422.304 202.953 411.404 189.653 411.404C176.653 411.404 165.853 422.303 165.853 435.303C165.853 448.403 176.553 459.204 189.653 459.204C202.753 459.304 213.553 448.704 213.653 435.604Z" fill="white"/>
<path d="M234.053 82.1035C222.153 82.1035 212.353 72.5035 212.353 60.7035C212.353 48.8035 222.153 39.1035 233.953 39.1035C245.753 39.1035 255.553 49.0035 255.453 60.9035C255.453 72.4035 245.653 82.1035 234.053 82.1035Z" fill="white"/>
<path d="M190.753 19.2035C190.753 29.4035 182.053 37.9035 171.953 37.9035C161.253 37.9035 152.653 29.1035 152.853 18.4035C152.953 8.2035 161.653 -0.196501 171.853 0.00349914C182.453 0.203499 190.753 8.7035 190.753 19.2035Z" fill="white"/>
</svg>
