<svg width="166" height="181" viewBox="0 0 166 181" fill="none" xmlns="http://www.w3.org/2000/svg">
<path d="M83.2707 108.566C83.2918 98.9394 91.061 91.2123 100.709 91.2546C110.294 91.2757 118 99.0449 118 108.651C117.979 118.278 110.21 126.005 100.561 125.984C90.9555 125.942 83.2496 118.172 83.2707 108.566ZM98.5769 111.797C96.888 110.53 95.3257 109.284 93.7 108.144C93.1722 107.785 92.4544 107.532 91.8211 107.532C90.8499 107.553 90.1954 108.208 89.921 109.158C89.6465 110.171 90.0054 110.973 90.8077 111.586C93.0033 113.253 95.2201 114.921 97.4369 116.589C98.7669 117.581 99.9915 117.412 101.005 116.103C102.039 114.752 103.074 113.38 104.108 112.008C105.882 109.664 107.655 107.342 109.386 104.999C110.21 103.901 109.977 102.528 108.943 101.768C107.951 101.051 106.621 101.241 105.776 102.275C105.502 102.592 105.269 102.951 105.016 103.288C102.884 106.117 100.751 108.925 98.5769 111.797Z" fill="#1DADE1"/>
<path d="M47 90.5156C46.9789 74.2381 58.0839 59.9875 73.8757 56.0606C92.8766 51.3315 112.131 62.8587 116.902 81.8385C117.599 84.6042 117.958 87.4332 117.958 90.2833C117.958 91.6978 117.092 92.6901 115.825 92.7323C114.474 92.7957 113.503 91.909 113.461 90.4311C113.376 86.9054 112.933 83.4219 111.645 80.1284C107.085 68.4112 98.598 61.3598 86.0996 59.7975C70.5822 57.8552 56.5216 67.6301 52.5103 82.7041C48.5201 97.6937 56.6694 113.718 71.1312 119.291C74.488 120.579 77.9292 121.318 81.5183 121.403C81.8772 121.403 82.2572 121.424 82.6161 121.466C83.904 121.593 84.7485 122.543 84.7062 123.788C84.664 125.013 83.714 125.942 82.4261 125.942C78.1193 125.963 73.9179 125.245 69.9067 123.662C59.3928 119.481 52.2992 112.029 48.6468 101.304C47.5912 98.1159 47.0211 94.2102 47 90.5156Z" fill="#1DADE1"/>
<path d="M80.2304 91.2545C80.2304 90.8534 80.2304 90.5578 80.2304 90.2834C80.2304 82.4297 80.2304 74.5548 80.2304 66.7011C80.2304 65.3077 80.716 64.5266 81.8138 64.1888C83.1439 63.7666 84.5584 64.6533 84.7062 66.0467C84.7484 66.3634 84.7273 66.68 84.7273 66.9967C84.7273 75.6104 84.7273 84.2453 84.7273 92.859C84.7273 95.0125 83.9884 95.7725 81.8349 95.7725C77.1903 95.7725 72.5456 95.7725 67.901 95.7725C67.4576 95.7725 66.9931 95.7514 66.5709 95.6247C65.5364 95.2869 64.9453 94.2313 65.1142 93.1968C65.3042 92.0568 66.1487 91.2967 67.3732 91.2756C71.3211 91.2545 75.2902 91.2756 79.2382 91.2545C79.576 91.2545 79.8504 91.2545 80.2304 91.2545Z" fill="#1DADE1"/>
<rect x="0.5" y="0.5" width="164.358" height="180" rx="7.5" stroke="#1DADE1"/>
<circle cx="32.4012" cy="34.6357" r="16.7593" fill="#90D4EC"/>
<path d="M36.3597 37.6582V39.3457H27.7816V37.8955L31.9476 33.3516C32.4047 32.8359 32.765 32.3906 33.0287 32.0156C33.2924 31.6406 33.4769 31.3037 33.5824 31.0049C33.6937 30.7002 33.7494 30.4043 33.7494 30.1172C33.7494 29.7129 33.6732 29.3584 33.5209 29.0537C33.3744 28.7432 33.1576 28.5 32.8705 28.3242C32.5834 28.1426 32.2347 28.0518 31.8246 28.0518C31.35 28.0518 30.9515 28.1543 30.6293 28.3594C30.307 28.5645 30.0638 28.8486 29.8998 29.2119C29.7357 29.5693 29.6537 29.9795 29.6537 30.4424H27.5355C27.5355 29.6982 27.7054 29.0186 28.0453 28.4033C28.3851 27.7822 28.8773 27.29 29.5219 26.9268C30.1664 26.5576 30.9427 26.373 31.851 26.373C32.7064 26.373 33.433 26.5166 34.0306 26.8037C34.6283 27.0908 35.0824 27.498 35.3929 28.0254C35.7094 28.5527 35.8676 29.1768 35.8676 29.8975C35.8676 30.2959 35.8031 30.6914 35.6742 31.084C35.5453 31.4766 35.3607 31.8691 35.1205 32.2617C34.8861 32.6484 34.6078 33.0381 34.2855 33.4307C33.9633 33.8174 33.6088 34.21 33.222 34.6084L30.4535 37.6582H36.3597Z" fill="#1DADE1"/>
</svg>
